<?xml version="1.0" standalone="no"?><!DOCTYPE svg PUBLIC "-//W3C//DTD SVG 1.1//EN" "http://www.w3.org/Graphics/SVG/1.1/DTD/svg11.dtd"><svg t="1562139294328" class="icon" viewBox="0 0 1024 1024" version="1.1" xmlns="http://www.w3.org/2000/svg" p-id="690" xmlns:xlink="http://www.w3.org/1999/xlink" width="48" height="48"><defs><style type="text/css"></style></defs><path d="M219.428571 585.142857c-36.571429 0-73.142857 36.571429-73.142857 73.142857s36.571429 73.142857 73.142857 73.142857 73.142857-36.571429 73.142858-73.142857-36.571429-73.142857-73.142858-73.142857z m585.142858-146.285714c36.571429 0 73.142857-36.571429 73.142857-73.142857s-36.571429-73.142857-73.142857-73.142857-73.142857 36.571429-73.142858 73.142857 36.571429 73.142857 73.142858 73.142857zM219.428571 292.571429c-36.571429 0-73.142857 36.571429-73.142857 73.142857s36.571429 73.142857 73.142857 73.142857 73.142857-36.571429 73.142858-73.142857-36.571429-73.142857-73.142858-73.142857z m585.142858 292.571428c-36.571429 0-73.142857 36.571429-73.142858 73.142857s36.571429 73.142857 73.142858 73.142857 73.142857-36.571429 73.142857-73.142857-36.571429-73.142857-73.142857-73.142857zM512 292.571429c-36.571429 0-73.142857 36.571429-73.142857 73.142857s36.571429 73.142857 73.142857 73.142857 73.142857-36.571429 73.142857-73.142857-36.571429-73.142857-73.142857-73.142857z m0 292.571428c-36.571429 0-73.142857 36.571429-73.142857 73.142857s36.571429 73.142857 73.142857 73.142857 73.142857-36.571429 73.142857-73.142857-36.571429-73.142857-73.142857-73.142857z" p-id="691" fill="#707070"></path></svg>
